<?xml version="1.0" encoding="UTF-8" standalone="no"?>
<!-- Generator: Adobe Illustrator 24.3.0, SVG Export Plug-In . SVG Version: 6.00 Build 0)  -->

<svg
   version="1.1"
   id="Layer_1"
   x="0px"
   y="0px"
   viewBox="0 0 512 512"
   style="enable-background:new 0 0 512 512;"
   xml:space="preserve"
   sodipodi:docname="overlay-healing-temp.svg"
   inkscape:version="1.2.2 (732a01da63, 2022-12-09)"
   xmlns:inkscape="http://www.inkscape.org/namespaces/inkscape"
   xmlns:sodipodi="http://sodipodi.sourceforge.net/DTD/sodipodi-0.dtd"
   xmlns="http://www.w3.org/2000/svg"
   xmlns:svg="http://www.w3.org/2000/svg"><defs
   id="defs11" /><sodipodi:namedview
   id="namedview9"
   pagecolor="#505050"
   bordercolor="#eeeeee"
   borderopacity="1"
   inkscape:showpageshadow="0"
   inkscape:pageopacity="0"
   inkscape:pagecheckerboard="0"
   inkscape:deskcolor="#505050"
   showgrid="false"
   inkscape:zoom="1.6347656"
   inkscape:cx="256.30585"
   inkscape:cy="256.30585"
   inkscape:window-width="1920"
   inkscape:window-height="1017"
   inkscape:window-x="-8"
   inkscape:window-y="-8"
   inkscape:window-maximized="1"
   inkscape:current-layer="Layer_1" />
<g
   id="g6">
	<path
   d="M256,136.8c-67.4,0-122.3,53.5-122.3,119.2c0,65.7,54.9,119.2,122.3,119.2S378.3,321.7,378.3,256   C378.3,190.3,323.4,136.8,256,136.8z M256,362.4c-60.4,0-109.6-47.8-109.6-106.4c0-58.6,48.9-106.2,109.2-106.4V256l0,0l85.9,66.5   C320.4,347.9,289,362.6,256,362.4z"
   id="path2" />
	<path
   d="M372.5,31.2C294.8,31.2,256,96.9,256,96.9s-38.8-65.7-116.5-65.7c-37.1,0-107.8,33.7-107.8,125.1   C31.7,317.6,256,480.8,256,480.8s224.2-163.2,224.2-324.4C480.2,64.9,409.6,31.2,372.5,31.2z M256,387.9   c-74.4,0-135-59.2-135-131.9c0-72.7,60.6-131.9,135-131.9v0c74.4,0,135,59.2,135,131.9C391,328.7,330.4,387.9,256,387.9z"
   id="path4" />
</g>
<path
   style="fill:#ffffff;stroke-width:0.611708"
   d="M 245.49293,472.43171 C 211.78945,445.96285 178.44508,415.41612 148.5113,383.58696 103.64577,335.88058 69.533314,286.3989 50.854094,241.9307 23.273471,176.27162 26.123257,114.0392 58.557321,73.710872 62.353757,68.990406 71.135456,60.146578 75.851852,56.293986 94.793784,40.821252 119.15212,31.512428 140.7162,31.505315 c 24.91611,-0.0082 50.41798,7.898903 72.15835,22.373458 13.60719,9.059551 27.45582,22.078204 37.03874,34.818957 3.03663,4.037276 5.77565,7.340502 6.08671,7.340502 0.31106,0 3.05008,-3.303226 6.08671,-7.340502 6.22206,-8.272401 18.23924,-20.660177 26.02799,-26.830664 25.02492,-19.825534 53.91545,-30.371413 83.1763,-30.361751 21.71315,0.0072 45.83805,9.297013 65.19286,25.103993 6.18739,5.053208 15.81724,15.348978 20.61841,22.044204 8.11633,11.31822 15.39971,27.875698 19.0832,43.382328 4.72994,19.91191 4.84061,46.40071 0.29136,69.73477 -11.02853,56.56756 -44.93119,116.06825 -103.37478,181.42737 -19.15247,21.41874 -56.22331,57.2515 -81.3171,78.60129 -12.18821,10.36972 -32.52555,26.6787 -35.28126,28.29286 -0.42001,0.24602 -5.00533,-2.94409 -11.01076,-7.66042 z m 23.39963,-84.95291 c 57.74806,-5.61943 106.01689,-47.0134 118.85916,-101.93019 4.36747,-18.67643 4.36747,-40.42079 0,-59.09722 -10.75439,-45.98848 -47.09651,-83.74365 -93.45077,-97.08431 -27.19966,-7.82801 -55.29756,-7.20316 -82.03811,1.82439 -11.25324,3.79907 -16.72211,6.29974 -26.46834,12.10281 -34.90011,20.78009 -58.09612,55.45819 -63.80673,95.39128 -1.23984,8.6699 -1.23984,25.95898 0,34.62888 7.14511,49.96419 41.61764,91.11486 89.96922,107.3984 18.79381,6.32925 37.98584,8.60995 56.93557,6.76596 z"
   id="path132" /><path
   style="fill:#ffffff;stroke-width:0.611708"
   d="m 238.26045,373.71323 c -21.23492,-3.23891 -41.01668,-11.62896 -58.1123,-24.6472 -2.01864,-1.53718 -6.79702,-5.83277 -10.61863,-9.54575 -35.82214,-34.80387 -45.55072,-87.39128 -24.56893,-132.80627 10.91709,-23.63 31.54309,-44.61443 55.51051,-56.47516 18.46938,-9.13992 34.62285,-12.89982 55.45039,-12.90669 21.03783,-0.007 37.97939,3.97517 56.34596,13.24411 12.30636,6.21056 22.05577,13.45827 32.49334,24.15553 44.31142,45.41392 44.31142,117.12248 0,162.5364 -11.04741,11.32227 -19.89508,17.76943 -34.01288,24.78462 -12.4477,6.18532 -23.53504,9.64534 -37.39272,11.66914 -8.08499,1.18075 -27.32767,1.17596 -35.09474,-0.009 z m 39.11587,-13.0807 c 18.21901,-3.65737 34.78448,-11.43692 49.08985,-23.05379 6.36735,-5.1707 15.03278,-14.09743 14.68996,-15.13293 -0.12513,-0.37793 -19.40526,-15.53027 -42.84474,-33.67185 l -42.61724,-32.9847 v -53.11327 -53.11327 l -4.43489,0.0112 c -5.75519,0.0145 -15.59381,1.42775 -23.01242,3.30546 -30.80802,7.7978 -56.90334,28.5788 -70.72885,56.32491 -8.39301,16.84375 -11.90311,32.95802 -11.12604,51.07766 2.19294,51.13438 40.615,92.75853 93.39778,101.18154 8.73569,1.39403 28.70174,0.95262 37.58659,-0.83097 z"
   id="path134" /></svg>
