<?xml version="1.0" encoding="UTF-8" standalone="no"?>
<svg
   style="height: 512px; width: 512px;"
   viewBox="0 0 512 512"
   version="1.1"
   id="svg6"
   sodipodi:docname="overlay-healing.svg"
   inkscape:version="1.2.2 (732a01da63, 2022-12-09)"
   xmlns:inkscape="http://www.inkscape.org/namespaces/inkscape"
   xmlns:sodipodi="http://sodipodi.sourceforge.net/DTD/sodipodi-0.dtd"
   xmlns="http://www.w3.org/2000/svg"
   xmlns:svg="http://www.w3.org/2000/svg">
  <defs
     id="defs10" />
  <sodipodi:namedview
     id="namedview8"
     pagecolor="#505050"
     bordercolor="#eeeeee"
     borderopacity="1"
     inkscape:showpageshadow="0"
     inkscape:pageopacity="0"
     inkscape:pagecheckerboard="0"
     inkscape:deskcolor="#505050"
     showgrid="false"
     inkscape:zoom="1.6347656"
     inkscape:cx="256.30585"
     inkscape:cy="256.30585"
     inkscape:window-width="1920"
     inkscape:window-height="1017"
     inkscape:window-x="-8"
     inkscape:window-y="-8"
     inkscape:window-maximized="1"
     inkscape:current-layer="svg6" />
  <g
     class=""
     style=""
     transform="translate(0,0)"
     id="g4">
    <path
       d="M372.48 31.215c-77.65 0-116.48 65.73-116.48 65.73s-38.83-65.72-116.48-65.72c-37.14 0-107.77 33.72-107.77 125.13 0 161.24 224.25 324.43 224.25 324.43s224.25-163.19 224.25-324.43c0-91.42-70.63-125.13-107.77-125.14zm-145.492 115.02h60.698v79.415h79.238v60.7h-79.238v79.884h-60.698V286.35h-80.064v-60.7h80.064z"
       fill="#000000"
       fill-opacity="1"
       id="path2" />
  </g>
  <path
     style="fill:#ffffff;stroke-width:0.611708"
     d="M 248.28721,474.58818 C 218.32087,451.22832 196.92105,432.21643 167.88704,403.15965 146.48579,381.74159 133.96095,368.17511 120.126,351.42652 76.807745,298.98543 49.314656,249.3942 37.957513,203.21341 33.892195,186.68287 32.238772,173.17338 32.214755,156.29152 32.182912,133.90847 35.715613,115.98904 43.623193,98.422843 58.351314,65.705236 87.535497,41.658282 122.3417,33.560987 c 20.00457,-4.653853 47.4218,-1.018362 70.71881,9.377227 22.19567,9.904149 44.37535,28.165119 58.73693,48.359277 2.21322,3.112067 4.11011,5.658304 4.21531,5.658304 0.10519,0 1.74429,-2.216343 3.64244,-4.925199 15.12351,-21.582864 38.32789,-40.334799 62.46965,-50.483002 15.21048,-6.393861 33.06107,-10.044607 49.11384,-10.044607 18.05334,0 37.77387,6.355034 55.12213,17.763374 52.50821,34.529757 67.71409,102.574559 40.00818,179.032649 -14.25451,39.33717 -38.81914,79.93831 -74.49499,123.12751 -13.90511,16.83353 -26.38263,30.35197 -47.75403,51.73783 -21.52543,21.54 -36.30186,35.17332 -56.47144,52.1028 -9.44546,7.92812 -31.12206,25.22986 -31.6094,25.22986 -0.0946,0 -3.58296,-2.65897 -7.75192,-5.90883 z m 39.67899,-148.08878 0.15735,-39.91398 h 39.45077 39.45077 V 256 225.41458 h -39.4552 -39.45519 v -39.76106 -39.76105 h -30.58543 -30.58542 v 39.76105 39.76106 h -40.06691 -40.0669 V 256 286.58542 h 40.0669 40.06691 v 40.07262 40.07262 l 30.43249,-0.15864 30.4325,-0.15864 z"
     id="path131" />
</svg>
