<?xml version="1.0" encoding="UTF-8" standalone="no"?>
<!-- Generator: Adobe Illustrator 24.3.0, SVG Export Plug-In . SVG Version: 6.00 Build 0)  -->

<svg
   version="1.1"
   id="Layer_1"
   x="0px"
   y="0px"
   viewBox="0 0 512 512"
   style="enable-background:new 0 0 512 512;"
   xml:space="preserve"
   sodipodi:docname="overlay-damage-double.svg"
   inkscape:version="1.2.2 (732a01da63, 2022-12-09)"
   xmlns:inkscape="http://www.inkscape.org/namespaces/inkscape"
   xmlns:sodipodi="http://sodipodi.sourceforge.net/DTD/sodipodi-0.dtd"
   xmlns="http://www.w3.org/2000/svg"
   xmlns:svg="http://www.w3.org/2000/svg"><defs
   id="defs59" /><sodipodi:namedview
   id="namedview57"
   pagecolor="#505050"
   bordercolor="#eeeeee"
   borderopacity="1"
   inkscape:showpageshadow="0"
   inkscape:pageopacity="0"
   inkscape:pagecheckerboard="0"
   inkscape:deskcolor="#505050"
   showgrid="false"
   inkscape:zoom="1.6347656"
   inkscape:cx="256.30585"
   inkscape:cy="256.30585"
   inkscape:window-width="1920"
   inkscape:window-height="1017"
   inkscape:window-x="-8"
   inkscape:window-y="-8"
   inkscape:window-maximized="1"
   inkscape:current-layer="Layer_1" />
<g
   id="g54">
	<g
   id="g46">
		<circle
   cx="190.6"
   cy="197.1"
   r="89.2"
   id="circle42" />
		<polygon
   points="300.2,318 210.2,318 171,318 81.1,318 34.6,464 171,464 210.2,464 346.6,464   "
   id="polygon44" />
	</g>
	<polygon
   points="313.9,48 477.4,48 395.6,129.8  "
   id="polygon48" />
	<polygon
   points="313.9,150 477.4,150 395.6,231.8  "
   id="polygon50" />
	<polygon
   points="313.9,252 477.4,252 395.6,333.8  "
   id="polygon52" />
</g>
<path
   style="fill:#ffffff;stroke-width:0.611708"
   d="m 34.883465,463.82796 c 0.0088,-0.0841 10.412106,-32.77228 23.118358,-72.64039 l 23.102277,-72.48745 109.49532,-0.15459 109.49532,-0.1546 22.8639,72.03035 c 12.57514,39.61668 22.98435,72.37442 23.13158,72.79497 0.21368,0.6104 -31.14642,0.76463 -155.47758,0.76463 -85.65989,0 -155.73802,-0.0688 -155.729175,-0.15292 z"
   id="path303" /><path
   style="fill:#ffffff;stroke-width:0.611708"
   d="m 180.75986,285.59447 c -22.62588,-3.4558 -38.07167,-11.00676 -52.95096,-25.88605 -13.31746,-13.31747 -21.48808,-28.86991 -24.85411,-47.30882 -1.41659,-7.76003 -1.4043,-23.31051 0.0243,-30.72218 5.48069,-28.43452 22.73192,-51.49565 48.01705,-64.18834 29.95921,-15.039 66.46267,-11.60129 93.3719,8.79329 23.33124,17.68281 36.44893,45.92287 34.96599,75.27558 -1.09962,21.76531 -9.43471,41.05112 -24.53648,56.77267 -12.786,13.31073 -26.9094,21.34589 -44.98153,25.59111 -5.15684,1.21137 -8.47281,1.55257 -16.82198,1.73091 -5.71948,0.12216 -11.22485,0.096 -12.23417,-0.0582 z"
   id="path305" /><path
   style="fill:#ffffff;stroke-width:0.611708"
   d="m 355.09677,292.70251 -40.36928,-40.37276 h 81.0479 81.0479 L 436.454,292.70251 c -22.2031,22.20502 -40.50848,40.37276 -40.67861,40.37276 -0.17014,0 -18.47551,-18.16774 -40.67862,-40.37276 z"
   id="path307" /><path
   style="fill:#ffffff;stroke-width:0.611708"
   d="m 354.79092,190.85305 -40.67516,-40.67862 h 81.35377 81.35378 l -40.67516,40.67862 c -22.37134,22.37323 -40.67672,40.67861 -40.67862,40.67861 -0.002,0 -18.30727,-18.30538 -40.67861,-40.67861 z"
   id="path309" /><path
   style="fill:#ffffff;stroke-width:0.611708"
   d="M 354.79092,88.69773 314.11576,48.019116 h 81.35377 81.35378 L 436.14815,88.69773 c -22.37134,22.37324 -40.67672,40.67861 -40.67862,40.67861 -0.002,0 -18.30727,-18.30537 -40.67861,-40.67861 z"
   id="path311" /></svg>
