<?xml version="1.0" encoding="UTF-8" standalone="no"?>
<!-- Generator: Adobe Illustrator 24.3.0, SVG Export Plug-In . SVG Version: 6.00 Build 0)  -->

<svg
   version="1.1"
   id="Layer_1"
   x="0px"
   y="0px"
   viewBox="0 0 512 512"
   style="enable-background:new 0 0 512 512;"
   xml:space="preserve"
   sodipodi:docname="overlay-damage-quarter.svg"
   inkscape:version="1.2.2 (732a01da63, 2022-12-09)"
   xmlns:inkscape="http://www.inkscape.org/namespaces/inkscape"
   xmlns:sodipodi="http://sodipodi.sourceforge.net/DTD/sodipodi-0.dtd"
   xmlns="http://www.w3.org/2000/svg"
   xmlns:svg="http://www.w3.org/2000/svg"><defs
   id="defs13" /><sodipodi:namedview
   id="namedview11"
   pagecolor="#505050"
   bordercolor="#eeeeee"
   borderopacity="1"
   inkscape:showpageshadow="0"
   inkscape:pageopacity="0"
   inkscape:pagecheckerboard="0"
   inkscape:deskcolor="#505050"
   showgrid="false"
   inkscape:zoom="1.6347656"
   inkscape:cx="256.30585"
   inkscape:cy="256.30585"
   inkscape:window-width="1920"
   inkscape:window-height="1017"
   inkscape:window-x="-8"
   inkscape:window-y="-8"
   inkscape:window-maximized="1"
   inkscape:current-layer="Layer_1" />
<g
   id="g6">
	<circle
   cx="190.6"
   cy="197.1"
   r="89.2"
   id="circle2" />
	<polygon
   points="300.2,318 210.2,318 171,318 81.1,318 34.6,464 171,464 210.2,464 346.6,464  "
   id="polygon4" />
</g>
<path
   d="M476.9,77.2l-81.2-32.1l-81.2,32.1c-0.5,6.3-0.8,15.1,0,25.4c1.1,13.3,3.8,42.2,23.4,70.9c17.4,25.4,39.6,38.5,51.8,44.5  l6.1,2.4l6.1-2.4c12.2-6,34.4-19,51.8-44.5c19.6-28.7,22.3-57.6,23.4-70.9C477.7,92.2,477.4,83.5,476.9,77.2z"
   id="path8" />
<path
   style="fill:#ffffff;stroke-width:0.611708"
   d="m 34.883465,463.82796 c 0.0088,-0.0841 10.412106,-32.77228 23.118358,-72.64039 l 23.102277,-72.48745 109.49532,-0.15459 109.49532,-0.1546 22.8639,72.03035 c 12.57514,39.61668 22.98435,72.37442 23.13158,72.79497 0.21368,0.6104 -31.14642,0.76463 -155.47758,0.76463 -85.65989,0 -155.73802,-0.0688 -155.729175,-0.15292 z"
   id="path188" /><path
   style="fill:#ffffff;stroke-width:0.611708"
   d="m 180.75986,285.59447 c -22.62588,-3.4558 -38.07167,-11.00676 -52.95096,-25.88605 -13.31746,-13.31747 -21.48808,-28.86991 -24.85411,-47.30882 -1.41659,-7.76003 -1.4043,-23.31051 0.0243,-30.72218 5.48069,-28.43452 22.73192,-51.49565 48.01705,-64.18834 29.95921,-15.039 66.46267,-11.60129 93.3719,8.79329 23.33124,17.68281 36.44893,45.92287 34.96599,75.27558 -1.09962,21.76531 -9.43471,41.05112 -24.53648,56.77267 -12.786,13.31073 -26.9094,21.34589 -44.98153,25.59111 -5.15684,1.21137 -8.47281,1.55257 -16.82198,1.73091 -5.71948,0.12216 -11.22485,0.096 -12.23417,-0.0582 z"
   id="path190" /><path
   style="fill:#ffffff;stroke-width:0.611708"
   d="M 390.77417,218.15776 C 379.49249,213.2779 364.23116,202.4621 353.55932,191.78335 333.04964,171.2604 320.94053,146.60528 316.14897,115.6129 314.5347,105.17163 313.78904,77.76091 315.10496,77.235161 361.5296,58.687235 395.61921,45.557252 396.64603,45.82874 c 0.69868,0.184731 18.87816,7.303626 40.39885,15.819766 34.90301,13.811781 39.17371,15.645952 39.54715,16.984598 0.23025,0.825389 0.44342,6.180277 0.47372,11.899751 0.27004,50.976565 -20.9593,92.782485 -60.18642,118.522185 -7.90642,5.18797 -17.22617,10.06378 -20.18638,10.56091 -1.22001,0.20488 -3.20392,-0.28389 -5.91878,-1.45819 z"
   id="path192" /></svg>
